<svg width="10" height="16" viewBox="0 0 10 16" fill="none" xmlns="http://www.w3.org/2000/svg">
<path d="M7 8H8V9H7V8Z" fill="black"/>
<path d="M8 7H9V8H8V7Z" fill="black"/>
<path d="M8 2H9V3H8V2Z" fill="black"/>
<path d="M7 1H8V2H7V1Z" fill="black"/>
<path d="M5 7H4V8H5V7Z" fill="black"/>
<path d="M5 7H4V8H5V7Z" fill="black"/>
<path d="M6 6H5V7H6V6Z" fill="black"/>
<path d="M7 9H6V10H7V9Z" fill="black"/>
<path d="M4 4H3V5H4V4Z" fill="black"/>
<path d="M2 2H1V3H2V2Z" fill="black"/>
<path d="M3 1H2V2H3V1Z" fill="black"/>
<path d="M9 7H10V3H9V7Z" fill="black"/>
<path d="M7 1V0H3V1H7Z" fill="black"/>
<path d="M1 3H0V5H1V3Z" fill="black"/>
<path d="M3 6V5H1V6H3Z" fill="black"/>
<path d="M4 3V4H6V3H4Z" fill="black"/>
<path d="M6 6H7V4H6V6Z" fill="black"/>
<path d="M3 10H4V8H3V10Z" fill="black"/>
<path d="M4 10V11H6V10H4Z" fill="black"/>
<path d="M4 12V13H6V12H4Z" fill="black"/>
<path d="M3 15H4V13H3V15Z" fill="black"/>
<path d="M6 16V15H4V16H6Z" fill="black"/>
<path d="M7 13H6V15H7V13Z" fill="black"/>
</svg>
